<?xml version="1.0" standalone="no"?>
<!DOCTYPE svg PUBLIC "-//W3C//DTD SVG 20010904//EN"
 "http://www.w3.org/TR/2001/REC-SVG-20010904/DTD/svg10.dtd">
<svg version="1.0" xmlns="http://www.w3.org/2000/svg"
 width="70.000000pt" height="70.000000pt" viewBox="0 0 70.000000 70.000000"
 preserveAspectRatio="xMidYMid meet">
<metadata>
Created by potrace 1.11, written by Peter Selinger 2001-2013
</metadata>
<g transform="translate(0.000000,70.000000) scale(0.100000,-0.100000)"
fill="#000000" stroke="none">
<path d="M72 467 c-26 -28 -28 -59 -6 -78 9 -8 39 -25 68 -39 55 -27 70 -55
40 -77 -27 -20 -52 -16 -80 12 -29 29 -56 34 -47 8 11 -31 46 -53 88 -53 55 0
85 22 85 64 0 39 -12 51 -77 76 -42 16 -48 22 -48 46 0 26 4 29 37 32 29 2 40
-2 50 -17 15 -24 38 -28 38 -6 0 53 -107 76 -148 32z"/>
<path d="M280 365 l0 -125 80 0 c64 0 80 3 80 15 0 12 -13 15 -60 15 l-60 0 0
39 0 40 52 3 c74 4 77 28 4 28 l-56 0 0 40 0 40 60 0 c47 0 60 3 60 15 0 12
-16 15 -80 15 l-80 0 0 -125z"/>
<path d="M500 365 l0 -125 75 0 c60 0 75 3 75 15 0 12 -13 15 -60 15 l-60 0 0
110 c0 91 -3 110 -15 110 -13 0 -15 -21 -15 -125z"/>
</g>
</svg>
